P2
64 64
255
255 255 255 255 255 255 255 255 255 255 255 255 255 255 255 255 255 255 254 254 255 255 255 247 245 227 231 223 209 215 236 250 250 236 214 207 222 232 225 243 247 255 255 255 254 254 255 255 255 255 255 255 255 255 255 255 255 255 255 255 255 255 255 255 
255 255 255 255 255 255 255 255 255 255 255 255 255 255 255 255 255 255 255 255 250 229 223 218 242 241 222 227 245 255 255 255 255 255 255 244 225 223 241 242 217 221 229 251 255 255 255 255 255 255 255 255 255 255 255 255 255 255 255 255 255 255 255 255 
255 255 255 255 255 255 255 255 255 255 255 255 255 255 255 255 255 255 239 233 246 237 233 219 253 255 219 249 255 254 254 255 255 254 254 255 249 218 255 253 219 233 238 247 232 240 255 255 255 255 255 255 255 255 255 255 255 255 255 255 255 255 255 255 
255 255 255 255 255 255 255 255 255 255 255 255 255 254 255 255 246 228 210 250 255 254 255 248 222 219 246 255 254 255 255 255 255 255 255 254 255 247 219 221 249 255 254 255 251 210 227 246 255 255 254 255 255 255 255 255 255 255 255 255 255 255 255 255 
255 255 255 255 255 255 255 255 255 255 255 255 255 255 252 233 214 226 240 255 254 254 253 255 228 221 255 254 255 255 255 255 255 255 255 255 254 255 221 228 255 253 254 254 255 240 226 214 233 252 255 255 255 255 255 255 255 255 255 255 255 255 255 255 
255 255 255 255 255 255 255 255 255 255 255 254 255 237 227 255 255 219 244 255 255 255 254 255 239 239 255 254 255 255 255 255 255 255 255 255 254 255 240 240 255 255 255 255 255 244 219 255 255 225 235 255 254 255 255 255 255 255 255 255 255 255 255 255 
255 255 255 255 255 255 255 255 255 254 255 254 232 207 241 255 255 242 239 255 254 255 254 255 236 247 255 255 255 255 255 255 255 255 255 255 255 255 248 237 255 254 255 254 255 239 242 255 255 240 206 233 254 255 254 255 255 255 255 255 255 255 255 255 
255 255 255 255 255 255 255 255 254 255 248 214 252 249 232 255 255 229 218 255 255 255 255 251 208 248 255 255 255 255 255 255 255 255 255 255 255 255 248 207 250 255 255 255 255 219 229 255 255 232 249 252 214 249 255 254 255 255 255 255 255 255 255 255 
255 255 255 255 255 255 255 254 255 243 232 229 235 241 206 230 234 219 221 218 248 244 235 231 226 245 255 255 255 255 255 255 255 255 255 255 255 255 245 225 230 235 246 248 216 222 219 237 232 206 242 236 230 233 243 255 254 255 255 255 255 255 255 255 
255 255 255 255 255 255 255 255 249 225 221 232 222 244 251 253 254 254 254 251 249 233 208 232 242 231 255 254 255 255 255 255 255 255 255 255 254 255 231 241 237 213 237 250 251 254 254 254 253 251 246 226 233 222 225 249 255 255 255 255 255 255 255 255 
255 255 255 255 255 255 255 252 215 220 239 250 255 255 255 255 255 255 255 255 255 255 255 245 221 211 252 255 255 255 255 255 255 255 255 255 255 252 213 221 247 255 255 255 255 255 255 255 255 255 255 255 250 240 221 217 252 255 255 255 255 255 255 255 
255 255 255 255 255 255 254 213 224 254 255 255 254 255 255 255 255 255 255 255 255 254 254 255 255 230 225 255 254 254 255 255 255 255 254 254 255 229 231 255 255 254 254 255 255 255 255 255 255 255 255 254 255 255 255 227 214 254 255 255 255 255 255 255 
255 255 255 255 254 255 218 228 255 254 254 255 255 255 255 255 255 255 255 255 255 255 255 255 254 255 245 239 253 255 255 255 255 255 255 253 241 247 255 254 255 255 255 255 255 255 255 255 255 255 255 255 255 254 254 255 230 220 255 255 255 255 255 255 
255 255 255 254 255 233 228 255 254 255 255 255 255 255 255 255 255 255 255 255 255 255 255 255 255 254 255 246 215 238 250 253 253 250 236 216 247 255 254 255 255 255 255 255 255 255 255 255 255 255 255 255 255 255 255 254 255 229 232 255 254 255 255 255 
255 255 255 255 251 240 255 254 255 255 255 255 255 255 255 255 255 255 255 255 255 255 255 255 255 255 254 255 238 217 220 228 228 220 219 240 255 254 255 255 255 255 255 255 255 255 255 255 255 255 255 255 255 255 255 255 255 254 239 253 255 255 255 255 
255 255 255 255 244 253 255 255 255 255 255 255 255 255 255 255 255 255 255 255 255 255 255 255 255 255 255 254 255 230 222 255 255 223 231 255 254 255 255 255 255 255 255 255 255 255 255 255 255 255 255 255 255 255 255 255 255 255 254 249 255 255 255 255 
255 255 255 248 248 255 255 255 255 255 255 255 255 255 255 255 255 255 255 255 255 255 255 255 255 255 255 255 255 248 232 255 255 234 248 255 255 255 255 255 255 255 255 255 255 255 255 255 255 255 255 255 255 255 255 255 255 255 255 251 251 255 255 255 
255 255 254 242 254 255 255 255 255 255 255 255 255 255 255 255 255 255 255 255 255 255 255 255 255 255 255 255 254 255 230 226 227 234 255 254 255 255 255 255 255 255 255 255 255 255 255 255 255 255 255 255 255 255 255 255 255 255 255 255 243 253 255 255 
254 255 239 237 255 254 255 255 255 255 255 255 255 255 255 255 255 255 255 255 255 255 255 255 255 255 255 255 255 255 245 228 228 246 255 255 255 255 255 255 255 255 255 255 255 255 255 255 255 255 255 255 255 255 255 255 255 255 254 255 233 237 255 254 
254 255 220 245 255 255 255 255 255 255 255 255 255 255 255 255 255 255 255 255 255 255 255 255 255 255 255 255 255 255 255 223 225 255 255 255 255 255 255 255 255 255 255 255 255 255 255 255 255 255 255 255 255 255 255 255 255 255 255 255 247 221 255 254 
255 247 214 255 255 255 255 255 255 255 255 255 255 255 255 255 255 255 255 255 255 255 255 255 255 255 255 255 255 254 255 225 227 255 254 255 255 255 255 255 255 255 255 255 255 255 255 255 255 255 255 255 255 255 255 255 255 255 255 255 255 218 248 255 
255 232 220 255 254 255 255 255 255 255 255 255 255 255 255 255 255 255 255 255 255 255 255 255 255 255 255 255 255 254 255 232 233 255 254 255 255 255 255 255 255 255 255 255 255 255 255 255 255 255 255 255 255 255 255 255 255 255 255 254 255 222 232 255 
255 220 230 255 254 255 255 255 255 255 255 255 255 255 255 255 255 255 255 255 255 255 255 255 255 255 255 255 255 255 255 244 244 255 255 255 255 255 255 255 255 255 255 255 255 255 255 255 255 255 255 255 255 255 255 255 255 255 255 254 255 231 221 255 
251 223 235 255 254 255 255 255 255 255 255 255 255 255 255 255 255 255 255 255 255 255 255 255 255 255 255 255 255 255 255 248 248 255 255 255 255 255 255 255 255 255 255 255 255 255 255 255 255 255 255 255 255 255 255 255 255 255 255 254 255 237 221 250 
240 221 231 255 254 255 255 255 255 255 255 255 255 255 255 255 255 255 255 255 255 255 255 255 255 255 255 255 255 254 255 241 241 255 254 255 255 255 255 255 255 255 255 255 255 255 255 255 255 255 255 255 255 255 255 255 255 255 255 254 255 233 219 239 
235 240 233 255 255 255 255 255 255 255 255 255 255 255 255 255 255 255 255 255 255 255 255 255 255 255 255 255 255 254 255 230 231 255 254 255 255 255 255 255 255 255 255 255 255 255 255 255 255 255 255 255 255 255 255 255 255 255 255 255 255 234 240 235 
218 226 218 255 255 255 255 255 255 255 255 255 255 255 255 255 255 255 255 255 255 255 255 255 255 255 255 255 255 254 255 226 228 255 254 255 255 255 255 255 255 255 255 255 255 255 255 255 255 255 255 255 255 255 255 255 255 255 255 255 255 219 226 216 
235 255 235 245 255 255 255 255 255 255 255 255 255 255 255 255 255 255 255 255 255 255 255 255 255 255 255 255 255 255 255 218 219 255 255 255 255 255 255 255 255 255 255 255 255 255 255 255 255 255 255 255 255 255 255 255 255 255 255 255 247 239 255 235 
212 239 212 228 255 254 255 255 255 255 255 255 255 255 255 255 255 255 255 255 255 255 255 255 255 255 255 255 255 255 246 238 237 245 255 255 255 255 255 255 255 255 255 255 255 255 255 255 255 255 255 255 255 255 255 255 255 255 254 255 232 215 239 213 
209 246 245 225 255 255 255 255 255 255 255 255 255 255 255 255 255 255 255 255 255 255 255 255 255 255 255 255 254 255 222 223 222 224 255 254 255 255 255 255 255 255 255 255 255 255 255 255 255 255 255 255 255 255 255 255 255 255 255 255 227 245 246 209 
243 255 255 242 235 255 254 255 255 255 255 255 255 255 255 255 255 255 255 255 255 255 255 255 255 255 255 255 255 249 228 251 250 231 250 255 255 255 255 255 255 255 255 255 255 255 255 255 255 255 255 255 255 255 255 255 255 254 255 234 242 255 255 244 
232 255 255 236 216 253 255 255 255 255 255 255 255 255 255 255 255 255 255 255 255 255 255 255 255 255 255 254 255 228 250 255 255 250 228 255 254 255 255 255 255 255 255 255 255 255 255 255 255 255 255 255 255 255 255 255 255 255 254 216 235 255 255 233 
215 232 237 220 221 215 255 254 255 255 255 255 255 255 255 255 255 255 255 255 255 255 255 255 255 255 254 255 238 208 253 255 255 252 209 240 255 254 255 255 255 255 255 255 255 255 255 255 255 255 255 255 255 255 255 255 254 255 216 221 220 237 233 215 
227 222 247 255 255 239 237 255 255 255 255 255 255 255 255 255 255 255 255 255 255 255 255 255 255 254 255 239 229 245 219 252 252 219 245 231 240 255 254 255 255 255 255 255 255 255 255 255 255 255 255 255 255 255 255 255 255 238 238 255 255 247 222 228 
204 252 255 254 254 255 236 223 255 255 254 255 255 255 255 255 255 255 255 255 255 255 255 254 255 255 234 211 222 234 221 238 239 223 237 220 211 236 255 255 254 255 255 255 255 255 255 255 255 255 255 255 255 254 255 255 224 237 255 254 254 255 253 203 
226 255 254 255 255 255 254 211 227 250 255 255 255 254 254 255 255 255 255 255 254 254 255 255 254 233 221 245 254 255 255 255 255 255 255 253 247 224 234 255 255 255 254 254 255 255 255 255 255 255 254 255 255 255 250 229 212 253 255 255 255 254 255 229 
245 255 255 255 255 255 252 236 250 211 226 246 255 255 255 255 255 255 255 255 255 255 251 239 245 251 255 255 255 255 254 254 254 254 255 255 255 255 251 250 240 251 255 255 255 255 255 255 255 255 255 255 246 228 211 250 235 251 255 255 255 255 255 246 
225 252 255 254 254 255 239 209 234 232 228 229 244 235 242 251 251 252 250 246 240 227 211 241 255 255 254 254 255 255 255 255 255 255 255 255 255 254 255 255 241 212 229 240 248 250 253 251 252 243 237 244 229 229 231 233 207 239 255 254 254 255 252 226 
222 224 254 255 255 248 226 244 255 255 255 255 255 243 212 217 223 225 237 213 235 214 250 255 255 255 255 255 255 255 255 255 255 255 255 255 255 255 255 255 255 249 214 236 214 239 228 224 219 213 244 255 255 255 255 255 244 225 248 255 255 255 224 222 
243 214 225 231 218 224 255 255 255 254 254 254 255 255 255 230 219 255 255 237 220 251 255 254 255 255 255 255 255 255 255 255 255 255 255 255 255 255 255 255 254 255 253 221 235 255 255 219 229 255 255 255 254 254 254 255 255 255 223 217 231 226 215 243 
246 225 255 239 215 255 254 254 255 255 255 255 255 254 255 252 228 254 255 236 239 255 254 255 255 255 255 255 255 255 255 255 255 255 255 255 255 255 255 255 255 254 255 240 236 255 254 227 252 255 254 255 255 255 255 255 254 254 255 216 239 255 227 247 
255 236 249 236 244 255 255 255 255 255 255 255 255 255 254 255 240 220 227 229 255 254 255 255 255 255 255 255 255 255 255 255 255 255 255 255 255 255 255 255 255 255 254 255 231 227 218 241 255 254 255 255 255 255 255 255 255 255 255 244 237 249 236 255 
255 229 222 220 254 255 255 255 255 255 255 255 255 255 255 255 253 227 222 249 255 255 255 255 255 255 255 255 255 255 255 255 255 255 255 255 255 255 255 255 255 255 255 255 249 224 227 253 255 255 255 255 255 255 255 255 255 255 255 254 221 222 228 255 
255 250 225 235 255 254 255 255 255 255 255 255 255 255 255 254 255 222 229 255 254 255 255 255 255 255 255 255 255 255 255 255 255 255 255 255 255 255 255 255 255 255 255 254 255 230 222 255 254 255 255 255 255 255 255 255 255 255 254 255 234 225 250 255 
255 255 220 226 255 254 255 255 255 255 255 255 255 255 255 254 255 223 243 255 255 255 255 255 255 255 255 255 255 255 255 255 255 255 255 255 255 255 255 255 255 255 255 255 255 243 222 255 254 255 255 255 255 255 255 255 255 255 254 255 226 219 255 254 
254 255 239 218 255 254 255 255 255 255 255 255 255 255 255 255 255 242 253 255 255 255 255 255 255 255 255 255 255 255 255 255 255 255 255 255 255 255 255 255 255 255 255 255 255 253 241 255 255 255 255 255 255 255 255 255 255 255 254 255 218 239 255 254 
255 255 255 224 253 255 255 255 255 255 255 255 255 255 255 255 252 239 255 255 255 255 255 255 255 255 255 255 255 255 255 255 255 255 255 255 255 255 255 255 255 255 255 255 255 255 238 251 255 255 255 255 255 255 255 255 255 255 255 252 222 255 255 255 
255 255 255 247 247 255 254 255 255 255 255 255 255 255 254 255 234 228 255 254 255 255 255 255 255 255 255 255 255 255 255 255 255 255 255 255 255 255 255 255 255 255 255 255 254 255 226 233 255 254 255 255 255 255 255 255 255 254 255 246 245 255 255 255 
255 255 255 255 239 250 255 254 255 255 255 255 255 254 255 252 210 238 255 254 255 255 255 255 255 255 255 255 255 255 255 255 255 255 255 255 255 255 255 255 255 255 255 255 254 255 236 209 252 255 254 255 255 255 255 255 254 255 250 240 255 255 255 255 
255 255 255 255 247 217 252 255 255 255 254 254 255 255 251 232 224 240 255 254 255 255 255 255 255 255 255 255 255 255 255 255 255 255 255 255 255 255 255 255 255 255 255 255 254 255 244 225 231 252 255 255 254 254 255 255 255 253 217 248 255 255 255 255 
255 255 255 254 255 234 211 240 252 255 255 255 253 240 206 227 247 236 255 254 255 255 255 255 255 255 255 255 255 255 255 255 255 255 255 255 255 255 255 255 255 255 255 255 254 255 237 247 228 206 239 253 255 255 255 252 241 211 233 255 254 255 255 255 
255 255 255 255 254 255 226 224 222 231 229 220 226 247 248 245 211 226 255 254 255 255 255 255 255 255 255 255 255 255 255 255 255 255 255 255 255 255 255 255 255 255 255 255 254 255 226 212 245 247 246 226 218 229 231 222 226 227 255 254 255 255 255 255 
255 255 255 255 255 255 254 229 225 255 236 219 255 255 255 255 249 226 255 255 255 255 255 255 255 255 255 255 255 255 255 255 255 255 255 255 255 255 255 255 255 255 255 255 255 255 226 250 255 255 255 255 218 236 255 226 228 254 255 255 255 255 255 255 
255 255 255 255 255 255 255 245 231 255 237 243 255 254 255 254 255 244 250 255 255 255 255 255 255 255 255 255 255 255 255 255 255 255 255 255 255 255 255 255 255 255 255 255 255 250 244 255 254 255 254 255 242 236 255 229 245 255 255 255 255 255 255 255 
255 255 255 255 255 255 255 255 248 216 216 247 255 255 255 254 255 233 230 255 254 255 255 255 255 255 255 255 255 255 255 255 255 255 255 255 255 255 255 255 255 255 255 254 255 230 233 255 254 255 255 255 247 216 216 248 255 255 255 255 255 255 255 255 
255 255 255 255 255 255 255 254 255 252 216 235 255 253 254 253 255 229 222 255 255 255 255 255 255 255 255 255 255 255 255 255 255 255 255 255 255 255 255 255 255 255 255 255 255 222 229 255 253 254 253 255 235 214 251 255 254 255 255 255 255 255 255 255 
255 255 255 255 255 255 255 255 254 255 248 224 253 255 255 255 244 218 218 234 255 254 255 255 255 255 255 255 255 255 255 255 255 255 255 255 255 255 255 255 255 255 254 255 235 219 218 244 255 255 255 253 228 247 255 254 255 255 255 255 255 255 255 255 
255 255 255 255 255 255 255 255 255 255 255 253 237 227 242 227 225 255 254 236 250 255 255 255 255 255 255 255 255 255 255 255 255 255 255 255 255 255 255 255 255 255 255 250 236 254 255 225 227 241 228 239 253 255 255 255 255 255 255 255 255 255 255 255 
255 255 255 255 255 255 255 255 255 255 255 254 255 233 215 224 240 255 255 238 214 255 255 255 255 255 255 255 255 255 255 255 255 255 255 255 255 255 255 255 255 255 255 214 238 255 255 240 225 216 232 255 254 255 255 255 255 255 255 255 255 255 255 255 
255 255 255 255 255 255 255 255 255 255 255 255 255 255 254 222 225 255 255 233 223 236 255 255 254 255 255 255 255 255 255 255 255 255 255 255 255 255 255 254 255 254 237 224 233 255 255 226 224 255 255 255 255 255 255 255 255 255 255 255 255 255 255 255 
255 255 255 255 255 255 255 255 255 255 255 255 255 254 255 255 247 235 213 223 255 231 220 255 255 254 254 255 255 255 255 255 255 255 255 255 255 254 254 255 255 220 231 255 222 213 237 247 255 255 254 255 255 255 255 255 255 255 255 255 255 255 255 255 
255 255 255 255 255 255 255 255 255 255 255 255 255 255 255 254 255 254 242 228 236 218 246 222 243 255 255 255 254 254 255 255 255 255 254 254 255 255 255 244 219 245 218 236 230 242 254 255 254 255 255 255 255 255 255 255 255 255 255 255 255 255 255 255 
255 255 255 255 255 255 255 255 255 255 255 255 255 255 255 255 255 255 255 255 246 236 233 227 216 221 240 253 255 255 255 255 255 255 255 255 253 241 222 216 226 231 235 247 255 255 255 255 255 255 255 255 255 255 255 255 255 255 255 255 255 255 255 255 
255 255 255 255 255 255 255 255 255 255 255 255 255 255 255 255 255 255 254 254 255 255 255 250 243 230 218 213 222 236 251 252 252 252 240 222 216 217 229 242 250 255 255 255 254 254 255 255 255 255 255 255 255 255 255 255 255 255 255 255 255 255 255 255 
